<svg width="967" height="176" viewBox="0 0 967 176" fill="none" xmlns="http://www.w3.org/2000/svg">
<path d="M946.225 57.92H966.705L946.225 121.92H928.305L918.065 87.744L907.825 121.92H889.905L869.425 57.92H889.905L899.121 92.224L909.105 57.92H927.025L937.009 92.224L946.225 57.92Z" fill="#F6F6F6"/>
<path d="M833.545 123.712C814.729 123.712 799.625 108.992 799.625 89.92C799.625 70.848 814.729 56.128 833.545 56.128C852.361 56.128 867.465 70.848 867.465 89.92C867.465 108.992 852.361 123.712 833.545 123.712ZM833.545 105.024C841.865 105.024 848.265 99.008 848.265 89.92C848.265 80.832 841.865 74.816 833.545 74.816C825.225 74.816 818.825 80.832 818.825 89.92C818.825 99.008 825.225 105.024 833.545 105.024Z" fill="#F6F6F6"/>
<path d="M769.575 121.92V28.48H788.775V121.92H769.575Z" fill="#F6F6F6"/>
<path d="M758.115 52.032H724.195V69.312H757.475V89.024H724.195V121.92H703.715V32.32H758.115V52.032Z" fill="#F6F6F6"/>
<path d="M661.376 76.608C661.376 83.904 692.864 79.04 692.864 102.72C692.864 117.44 680.064 123.712 666.24 123.712C653.44 123.712 643.712 118.848 638.72 108.48L655.36 99.008C657.024 103.872 660.608 106.56 666.24 106.56C670.848 106.56 673.152 105.152 673.152 102.592C673.152 95.552 641.664 99.264 641.664 77.12C641.664 63.168 653.44 56.128 666.752 56.128C677.12 56.128 686.336 60.736 691.712 69.824L675.328 78.656C673.536 75.328 670.976 73.024 666.752 73.024C663.424 73.024 661.376 74.304 661.376 76.608Z" fill="#F6F6F6"/>
<path d="M610.544 57.92H629.744V121.92H610.544V115.904C607.088 120.64 600.688 123.712 592.24 123.712C579.312 123.712 568.304 114.496 568.304 97.216V57.92H587.504V94.4C587.504 102.336 592.496 106.048 598.64 106.048C605.68 106.048 610.544 101.952 610.544 92.864V57.92Z" fill="#F6F6F6"/>
<path d="M527.722 56.128C544.49 56.128 558.314 70.848 558.314 89.92C558.314 108.992 544.49 123.712 527.722 123.712C519.146 123.712 512.874 120.768 508.65 115.904V147.52H489.45V57.92H508.65V63.936C512.874 59.072 519.146 56.128 527.722 56.128ZM523.882 105.536C532.714 105.536 539.114 99.52 539.114 89.92C539.114 80.32 532.714 74.304 523.882 74.304C515.05 74.304 508.65 80.32 508.65 89.92C508.65 99.52 515.05 105.536 523.882 105.536Z" fill="#F6F6F6"/>
<path d="M452.005 56.128C466.725 56.128 476.325 66.624 476.325 82.624V121.92H457.125V84.288C457.125 77.888 454.053 73.792 447.909 73.792C441.509 73.792 437.925 78.272 437.925 85.824V121.92H418.725V84.288C418.725 77.888 415.653 73.792 409.509 73.792C403.109 73.792 399.525 78.272 399.525 85.824V121.92H380.325V57.92H399.525V63.808C402.469 59.456 408.101 56.128 416.677 56.128C424.229 56.128 429.861 59.2 433.445 64.576C437.029 59.456 442.917 56.128 452.005 56.128Z" fill="#F6F6F6"/>
<path d="M347.039 57.92H366.239V121.92H347.039V115.904C342.815 120.768 336.543 123.712 327.967 123.712C311.199 123.712 297.375 108.992 297.375 89.92C297.375 70.848 311.199 56.128 327.967 56.128C336.543 56.128 342.815 59.072 347.039 63.936V57.92ZM331.807 105.536C340.639 105.536 347.039 99.52 347.039 89.92C347.039 80.32 340.639 74.304 331.807 74.304C322.975 74.304 316.575 80.32 316.575 89.92C316.575 99.52 322.975 105.536 331.807 105.536Z" fill="#F6F6F6"/>
<path d="M252.592 123.712C225.584 123.712 206 103.488 206 77.12C206 50.752 225.584 30.528 252.592 30.528C268.848 30.528 283.184 38.592 290.992 51.264L273.328 61.504C269.36 54.592 261.68 50.496 252.592 50.496C236.72 50.496 226.48 61.12 226.48 77.12C226.48 93.12 236.72 103.744 252.592 103.744C261.68 103.744 269.488 99.648 273.328 92.736L290.992 102.976C283.312 115.648 268.976 123.712 252.592 123.712Z" fill="#F6F6F6"/>
<path fill-rule="evenodd" clip-rule="evenodd" d="M88 142.686V88L176 142.686V161C176 169.284 169.284 176 161 176H15C6.71573 176 0 169.284 0 161V88C23.9931 124.237 42.6019 137.16 88 142.686Z" fill="#F6F6F6"/>
<path d="M176 88V15C176 6.71573 169.284 0 161 0H15C6.71573 0 0 6.7157 0 15V33.3143L88 88V33.3143C131.263 37.0187 150.47 49.1277 176 88Z" fill="#F6F6F6"/>
</svg>
