<svg width="212" height="288" viewBox="0 0 212 288" fill="none" xmlns="http://www.w3.org/2000/svg">
<g clip-path="url(#clip0_68_91)">
<path d="M0.754395 98.9836V197.967H106.377H212V98.9836V0.000320435H106.377H0.754395V98.9836ZM209.839 19.7808V37.5174L202.51 35.2039C198.475 33.9367 194.392 32.6478 193.441 32.3512L191.702 31.8011L172.846 38.3209L153.99 44.8353L153.979 50.735L153.963 56.6346L152.315 57.1685C151.408 57.4597 150.652 57.7023 150.63 57.7023C150.603 57.7023 150.587 56.4944 150.587 55.0168V52.3258L149.766 52.1317L148.945 51.9321L146.471 52.7518L143.997 53.5769V56.7155V59.854L142.69 60.2801L141.378 60.7061L141.362 58.0475C141.351 55.5776 141.345 55.3889 141.253 55.3619C141.205 55.3457 140.848 55.2594 140.46 55.1678L139.757 55.0006L137.316 55.7987L134.869 56.5968V59.7084V62.82L133.832 63.1544C133.26 63.3377 132.687 63.5211 132.563 63.5588L132.331 63.6289V60.9919V58.3603L131.531 58.1661L130.737 57.9774L128.388 58.7485L126.038 59.5251L126.022 62.6043L126.011 65.6782L124.887 66.0395C124.272 66.239 123.737 66.4116 123.705 66.4277C123.651 66.4439 123.634 65.91 123.634 63.8662V61.2831L122.867 61.0836C122.441 60.9757 122.057 60.884 122.014 60.884C121.971 60.884 120.907 61.2238 119.654 61.6444L117.369 62.4048V65.4409V68.4824L116.343 68.8113C115.775 68.9893 115.279 69.1511 115.235 69.1673C115.165 69.1942 115.154 68.876 115.154 66.6381V64.0711L114.981 64.0226C114.884 63.9956 114.517 63.904 114.166 63.8177L113.529 63.6667L111.287 64.4109L109.051 65.1551V68.1588V71.1626L108.122 71.4645C107.609 71.6317 107.133 71.7827 107.069 71.8043L106.944 71.8366V69.329C106.944 67.9485 106.939 66.816 106.934 66.816C106.923 66.816 106.555 66.719 106.118 66.6057L105.319 66.3954L104.298 66.7351L103.282 67.0749L97.0599 65.5973C93.6355 64.7884 90.708 64.0981 90.5513 64.0603L90.265 63.9956L80.8343 67.2744L71.4036 70.5532L71.3928 71.9283L71.3766 73.3035L63.3287 76.1023L55.2807 78.9011L53.4172 78.5128C52.3964 78.3025 51.5052 78.1299 51.4458 78.1299C51.3864 78.1299 47.8755 79.3325 43.6409 80.7993L35.944 83.4633L35.9278 86.3538L35.917 89.2443L34.1345 89.8213L32.3521 90.4038V93.1918V95.9852L31.758 96.174C31.4339 96.2818 31.1422 96.3681 31.1098 96.3681C31.0774 96.3681 31.0504 95.5592 31.045 94.0384L31.0288 91.7034L30.2456 91.5039L29.4624 91.2989L27.653 91.8867L25.8435 92.4746L25.8165 95.2949L25.7895 98.1153L25.3034 98.2663C25.0387 98.3472 24.8011 98.4173 24.7795 98.4173C24.7579 98.4173 24.7308 97.3711 24.7254 96.0877L24.7092 93.758L23.9098 93.5585L23.1051 93.359L22.5595 93.5423C22.2624 93.6448 22.0086 93.7257 21.9978 93.7257C21.9924 93.7257 21.9762 93.4884 21.9708 93.2026L21.9546 92.6741L19.9021 92.3182L17.8496 91.9569L10.4336 94.4591C6.35556 95.8342 2.99594 96.9613 2.96353 96.9613C2.93653 96.9613 2.91492 79.1707 2.91492 49.5054V2.04955H106.377H209.839V19.7808ZM191.68 35.6839L191.664 38.2562L173.705 44.2853C163.826 47.5964 155.729 50.3089 155.702 50.3143C155.68 50.3143 155.67 49.2412 155.675 47.9308L155.691 45.5472L173.624 39.3348C183.486 35.9158 191.588 33.1224 191.626 33.117C191.68 33.1116 191.691 33.6401 191.68 35.6839ZM191.691 60.5982V76.7117L173.769 80.8587C163.917 83.1452 155.81 85.0218 155.761 85.0326C155.67 85.0542 155.664 84.3423 155.664 70.6071V56.16L173.667 50.3305C183.562 47.1218 191.669 44.4956 191.68 44.4956C191.686 44.4902 191.691 51.738 191.691 60.5982ZM148.254 55.61L148.237 58.3171L146.617 58.8456C145.726 59.1314 144.932 59.3849 144.851 59.401L144.7 59.4388V56.7478V54.0623L146.444 53.4906C147.4 53.1725 148.2 52.9136 148.227 52.9082C148.248 52.9028 148.259 54.1216 148.254 55.61ZM139.017 58.6299L139.001 61.2831L137.3 61.8385C136.365 62.1405 135.593 62.394 135.582 62.394C135.577 62.394 135.577 61.2022 135.582 59.7408L135.598 57.093L137.246 56.5375C138.153 56.2355 138.926 55.9821 138.963 55.9821C139.017 55.9767 139.028 56.5213 139.017 58.6299ZM130.062 61.5527V64.1682L129.619 64.303C129.371 64.3785 128.62 64.6212 127.945 64.8423L126.713 65.2413V62.6367V60.032L128.323 59.4927C129.203 59.1961 129.959 58.9481 129.997 58.9481C130.046 58.9427 130.062 59.4981 130.062 61.5527ZM121.366 64.3785V66.9562L119.978 67.4092C119.211 67.6519 118.482 67.8892 118.352 67.9269L118.125 67.997L118.136 65.4301L118.152 62.8578L119.745 62.3347C120.62 62.0489 121.344 61.8116 121.355 61.8062C121.36 61.8008 121.366 62.9602 121.366 64.3785ZM153.99 65.3492V68.2505L150.425 69.2428L146.86 70.235V77.3965V84.5581L146.984 84.5311C147.049 84.5149 148.626 84.1374 150.49 83.6952C152.348 83.2476 153.898 82.8863 153.93 82.8863C153.974 82.8863 153.984 83.6035 153.979 85.3777L153.963 87.8638L126.092 94.2164C110.763 97.7109 98.1564 100.585 98.0753 100.607L97.9241 100.639V90.2635V79.8934L125.892 71.1733C141.27 66.3792 153.887 62.4533 153.925 62.4533C153.974 62.4479 153.99 63.0627 153.99 65.3492ZM112.848 69.6796C112.821 69.7011 112.135 69.9276 111.319 70.1865C110.504 70.4453 109.818 70.6664 109.796 70.6826C109.769 70.6934 109.753 69.5663 109.753 68.1804V65.6566L111.309 65.1389L112.859 64.6212L112.875 67.1342C112.88 68.5093 112.87 69.658 112.848 69.6796ZM90.2434 68.7952L90.2272 72.2842L81.5041 75.2125C76.7077 76.8195 72.7648 78.1407 72.7378 78.1407C72.7162 78.1407 72.7054 76.62 72.7108 74.7649L72.727 71.3837L81.4501 68.3476C86.2465 66.6758 90.1894 65.3115 90.2164 65.3061C90.238 65.3061 90.2488 66.8754 90.2434 68.7952ZM104.622 69.8467V72.3436L103.207 72.7965C102.423 73.0446 101.743 73.2603 101.694 73.2765C101.602 73.2981 101.597 73.1633 101.597 70.8282V68.353L103.072 67.8568C103.876 67.5872 104.557 67.3607 104.584 67.3607C104.606 67.3553 104.622 68.477 104.622 69.8467ZM71.3928 76.4258L71.3766 78.2648L63.4097 80.8964L55.4427 83.5227L55.4265 81.8509C55.4211 80.9288 55.4265 80.163 55.4427 80.1468C55.4697 80.1199 71.2902 74.5923 71.3658 74.5869C71.3874 74.5815 71.3982 75.412 71.3928 76.4258ZM90.2542 89.8106V102.289L89.8383 102.187C89.6061 102.128 86.3545 101.335 82.6114 100.418C78.8683 99.5013 75.7679 98.7355 75.7193 98.7193C75.6491 98.687 75.3088 99.1238 74.1799 100.693L72.727 102.705L72.7108 92.8682C72.7054 87.4593 72.7108 83.0211 72.7216 83.0103C72.7432 82.9834 90.1462 77.3426 90.2164 77.3372C90.238 77.3318 90.2542 82.9456 90.2542 89.8106ZM71.4036 81.0096V83.0211L63.5015 85.5233C59.1589 86.8985 55.5616 88.0364 55.513 88.0525C55.4211 88.0741 55.4157 87.9609 55.4157 86.1705V84.2615L63.3449 81.6406C67.7037 80.1954 71.301 79.0143 71.3388 79.0089C71.3874 79.0036 71.4036 79.4404 71.4036 81.0096ZM51.4188 82.374C51.4188 83.9918 51.408 85.313 51.4026 85.313C51.381 85.313 37.4347 89.9831 37.2943 90.037C37.2241 90.064 37.2133 89.7458 37.2133 87.1951V84.3154L44.2512 81.8779C48.1186 80.5405 51.3161 79.4404 51.3539 79.4404C51.4026 79.435 51.4188 80.0551 51.4188 82.374ZM191.68 147.739C191.669 147.744 183.729 148.224 174.029 148.807C164.328 149.389 156.231 149.88 156.031 149.896L155.664 149.929V120.403V90.8729L155.95 90.8136C156.102 90.7812 164.204 89.0016 173.948 86.8553L191.664 82.9618L191.68 115.34C191.686 133.152 191.686 147.728 191.68 147.739ZM71.4036 85.2807V86.8068L70.0155 87.2221C69.2485 87.4485 68.0656 87.7991 67.3797 87.9986L66.1374 88.3653L66.1211 96.1955C66.1157 100.504 66.1265 104.026 66.1428 104.026C66.1644 104.026 67.3256 103.745 68.73 103.406C70.1289 103.066 71.3064 102.785 71.3388 102.785C71.3874 102.785 71.4036 103.033 71.4036 103.659V104.538L69.3619 107.364L67.3256 110.19L61.5192 111.468C58.327 112.169 55.648 112.762 55.5616 112.778L55.4157 112.816L55.4265 100.806L55.4427 88.7967L63.3827 86.2783C67.7523 84.8924 71.3388 83.7545 71.3658 83.7545C71.3874 83.7491 71.4036 84.4394 71.4036 85.2807ZM51.4188 101.227C51.4188 110.599 51.408 112.552 51.3485 112.53C50.9867 112.39 38.596 109.095 38.5636 109.133C38.542 109.154 37.6184 110.497 36.5111 112.115C35.4039 113.733 34.4748 115.081 34.437 115.119C34.4046 115.156 30.7101 116.025 26.2216 117.049C21.7385 118.074 18.0224 118.926 17.9738 118.942C17.882 118.969 17.8766 118.591 17.8766 111.532V104.09L18.3519 103.945C18.6112 103.864 23.0024 102.5 28.1121 100.903L37.4023 98.0075L37.4293 96.2063L37.4564 94.4051L44.397 92.1564C48.2158 90.9161 51.3539 89.9022 51.381 89.9022C51.4026 89.8968 51.4188 94.993 51.4188 101.227ZM35.312 92.4961L35.2958 94.8258L34.2426 95.1655C33.6646 95.3489 33.1569 95.5053 33.1245 95.5053C33.0705 95.5053 33.0543 95.0091 33.0543 93.1972V90.8945L34.1507 90.5332C34.7503 90.339 35.258 90.1773 35.285 90.1719C35.3066 90.1665 35.3174 91.2127 35.312 92.4961ZM153.99 92.9383V94.6316L153.871 94.6532C153.801 94.6694 152.197 95.0037 150.306 95.3974L146.86 96.12V103.147C146.86 109.688 146.865 110.173 146.952 110.173C147.038 110.173 153.623 109.068 153.871 109.014L153.99 108.987V110.923V112.859L153.817 112.891C153.72 112.908 141.156 114.935 125.903 117.4C110.65 119.859 98.1132 121.886 98.0429 121.903L97.9241 121.93L97.9349 112.724L97.9511 103.519L125.93 97.3873C141.318 94.0115 153.925 91.2504 153.952 91.2504C153.974 91.245 153.99 92.0054 153.99 92.9383ZM28.7764 94.5669L28.7602 96.8696L27.68 97.2094C27.0858 97.3981 26.5943 97.5545 26.5835 97.5545C26.5781 97.5545 26.5781 96.5191 26.5835 95.2518L26.5997 92.9491L27.626 92.6148C28.1931 92.4314 28.6846 92.2804 28.7224 92.275C28.7764 92.2696 28.7872 92.7442 28.7764 94.5669ZM16.5803 95.3273V96.9883L9.7854 99.2694C6.05309 100.52 2.97974 101.545 2.95813 101.545C2.93113 101.545 2.91492 100.796 2.91492 99.8787V98.2124L9.70978 95.9475C13.4421 94.7017 16.5154 93.6771 16.5424 93.6771C16.5641 93.6717 16.5803 94.4159 16.5803 95.3273ZM22.4569 96.5946L22.4407 98.8703L21.4144 99.2101C20.8527 99.3934 20.3558 99.5444 20.318 99.5444C20.264 99.5498 20.2532 99.0806 20.264 97.2741L20.2802 95.0037L21.3064 94.664C21.8736 94.4806 22.3651 94.3297 22.4029 94.3243C22.4569 94.3189 22.4677 94.788 22.4569 96.5946ZM81.785 104.495C87.1539 108.184 87.559 108.475 87.4131 108.512C87.3267 108.534 82.7626 109.499 77.2641 110.659C71.7709 111.818 67.2392 112.773 67.2014 112.789C67.1582 112.805 67.1474 112.789 67.1744 112.74C67.2446 112.622 75.9678 100.526 75.984 100.526C75.9948 100.52 78.6036 102.311 81.785 104.495ZM16.5803 109.472V117.772L16.3804 117.826C15.8889 117.955 3.03915 120.959 2.97974 120.959C2.93113 120.959 2.91492 119.352 2.92572 113.263L2.94193 105.568L9.72058 103.373C13.4475 102.165 16.5154 101.173 16.5424 101.173C16.5641 101.168 16.5803 104.905 16.5803 109.472ZM43.468 113.911C45.8824 115.512 47.8485 116.833 47.8323 116.844C47.7999 116.877 32.8166 120.037 32.795 120.015C32.7518 119.977 38.9741 110.945 39.0227 110.972C39.0551 110.988 41.0536 112.309 43.468 113.911ZM89.9302 114.622C89.9302 116.003 89.9194 117.13 89.9032 117.13C89.8869 117.13 86.1168 117.81 81.5203 118.64C76.9292 119.47 73.1375 120.15 73.0943 120.15C73.0348 120.15 73.024 119.724 73.024 117.804C73.024 116.515 73.0294 115.458 73.0402 115.458C73.0456 115.453 76.7942 114.703 81.3691 113.792C85.944 112.875 89.7411 112.126 89.8113 112.12L89.9302 112.115V114.622ZM71.4036 119.255V125.262L71.0634 125.284C69.9291 125.354 69.0217 126.519 68.622 128.401C68.3735 129.56 68.3789 129.328 68.3789 139.823V149.756L68.5842 149.729C68.6922 149.713 69.2593 149.664 69.8373 149.621C70.4152 149.578 71.0039 149.524 71.1498 149.508L71.4036 149.476V152.226V154.976L71.0688 155.008C70.8797 155.03 67.4715 155.235 63.4907 155.472C59.5099 155.71 56.0639 155.914 55.8316 155.936L55.4157 155.968L55.4265 135.649L55.4427 115.329L60.2229 114.315C62.8479 113.76 65.0085 113.317 65.0193 113.328C65.0355 113.339 64.8194 113.657 64.5494 114.035C64.2739 114.407 64.0632 114.725 64.0795 114.741C64.0903 114.752 65.6998 114.423 67.6605 114.008C69.6158 113.592 71.2578 113.253 71.3118 113.253C71.3982 113.247 71.4036 113.565 71.4036 119.255ZM153.99 116.348V119.125L153.871 119.152C153.801 119.168 152.251 119.395 150.425 119.665C148.599 119.934 147.038 120.166 146.957 120.182L146.806 120.215V129.943C146.806 135.293 146.817 139.672 146.833 139.672C146.849 139.672 148.426 139.526 150.344 139.348C152.261 139.17 153.86 139.024 153.909 139.024C153.979 139.024 153.99 139.607 153.99 144.228V149.432H153.86C153.79 149.432 141.259 150.317 126.011 151.401C110.763 152.485 98.2104 153.369 98.1078 153.369H97.9241V137.984V122.604L125.811 118.095C141.145 115.615 153.758 113.582 153.844 113.576L153.99 113.571V116.348ZM89.9302 132.796C89.9302 141.025 89.9248 147.761 89.9194 147.766C89.9086 147.771 89.3522 147.815 88.6771 147.863L87.4456 147.949V133.109V118.268L87.6238 118.236C87.7156 118.219 88.2341 118.122 88.7689 118.02C89.3036 117.923 89.7843 117.836 89.8383 117.836C89.9248 117.831 89.9302 118.575 89.9302 132.796ZM31.7202 119.115C31.2826 119.756 30.7047 120.608 30.4346 120.997L29.9485 121.708L29.9323 121.229C29.9215 120.813 29.9053 120.743 29.8243 120.743C29.7757 120.743 28.8358 120.937 27.734 121.169L25.7355 121.59L25.7193 126.335L25.7085 131.076L27.6368 130.741C28.7008 130.552 29.6514 130.385 29.7433 130.369L29.9215 130.337L29.9323 126.152L29.9485 121.967L30.8829 121.768L31.812 121.574V125.796V130.019L31.9362 129.992C32.1036 129.954 36.0898 129.264 36.1438 129.264C36.1978 129.264 36.2032 131.852 36.1492 131.852C36.1222 131.852 32.0064 132.515 26.994 133.324L17.8766 134.797V127.964V121.126L18.2979 121.034C20.4314 120.56 32.3953 117.95 32.4493 117.944C32.4871 117.939 32.1577 118.467 31.7202 119.115ZM86.7434 133.109V147.852L85.8954 147.917C85.4255 147.955 84.9123 147.998 84.7611 148.014L84.4748 148.046V133.427V118.807L84.6801 118.769C84.7881 118.748 85.2958 118.651 85.7982 118.554C86.3059 118.462 86.7218 118.381 86.7326 118.376C86.738 118.376 86.7434 125.003 86.7434 133.109ZM83.7727 121.509L83.7673 124.114L83.6322 123.833C83.4324 123.423 83.0705 123.046 82.741 122.9C82.5033 122.798 82.3845 122.787 81.9416 122.803C81.4771 122.819 81.3799 122.841 81.0504 123.003C80.2132 123.413 79.6136 124.356 79.241 125.839C78.8629 127.322 78.8899 126.503 78.8737 138.092C78.8575 148.208 78.8521 148.57 78.7548 148.57C78.7008 148.57 78.5442 148.586 78.4037 148.602L78.1553 148.64V134.29V119.945L78.7926 119.832C80.116 119.589 83.7457 118.92 83.7619 118.915C83.7673 118.915 83.7727 120.08 83.7727 121.509ZM51.0839 121.994L51.0677 124.162L44.5591 125.332C40.978 125.979 37.9857 126.519 37.9047 126.535L37.7534 126.562V124.518V122.474L38.0667 122.41C38.9633 122.226 50.9705 119.837 51.0299 119.832C51.0839 119.826 51.0947 120.274 51.0839 121.994ZM77.4531 134.36C77.4531 142.206 77.4369 148.623 77.4153 148.623C77.3883 148.623 77.021 148.661 76.5889 148.704C76.1568 148.748 75.7409 148.785 75.6599 148.785H75.5086V134.602V120.425L75.6869 120.393C75.7787 120.376 76.1622 120.301 76.5349 120.231C76.9076 120.161 77.2641 120.101 77.3343 120.101L77.4531 120.096V134.36ZM74.8065 134.732V148.877L74.1475 148.915C73.7802 148.936 73.3697 148.963 73.2293 148.985L72.97 149.017V134.948V120.878L73.7424 120.738C74.1637 120.657 74.5742 120.592 74.6606 120.587L74.8065 120.581V134.732ZM16.5695 157.338C16.5533 157.349 3.15798 158.282 3.01215 158.276C2.92032 158.276 2.91492 157.435 2.91492 141.343C2.91492 132.03 2.92032 124.41 2.93113 124.41C2.93653 124.41 6.00448 123.736 9.74759 122.911L16.5533 121.417L16.5695 139.37C16.5749 149.244 16.5749 157.327 16.5695 157.338ZM51.0839 137.849L51.0677 150.808L50.5546 150.845C50.2737 150.867 49.928 150.894 49.7876 150.905L49.5283 150.926V138.027V125.127L50.1657 125.02C50.5113 124.955 50.8624 124.906 50.9488 124.901L51.0947 124.896L51.0839 137.849ZM48.8261 138.124V150.98L48.1402 151.045C47.7567 151.077 47.4056 151.104 47.357 151.104C47.2651 151.104 47.2597 150.457 47.2597 138.323C47.2597 131.291 47.2651 125.543 47.276 125.543C47.2814 125.537 47.5784 125.483 47.9349 125.413C48.2914 125.343 48.6371 125.284 48.7073 125.278L48.8261 125.273V138.124ZM46.5576 127.948V130.245L46.3793 130.008C45.9094 129.382 45.0992 129.382 44.4457 130.002C43.9325 130.488 43.5598 131.345 43.306 132.607L43.1818 133.227L43.1655 142.346L43.1547 151.465L42.5984 151.503C42.2959 151.525 41.9827 151.552 41.9016 151.568L41.7504 151.6V139.062V126.53L44.1432 126.098C45.4557 125.855 46.536 125.656 46.5468 125.656C46.5522 125.651 46.5576 126.686 46.5576 127.948ZM40.9942 139.154V151.633L40.6323 151.67C40.4271 151.687 40.1516 151.714 40.0112 151.73L39.7519 151.762V139.326V126.896L39.9302 126.864C40.022 126.848 40.2758 126.799 40.4811 126.761C40.6917 126.718 40.8916 126.681 40.9294 126.681C40.978 126.675 40.9942 129.204 40.9942 139.154ZM39.0497 139.424V151.794L38.7257 151.827C38.5474 151.843 38.2557 151.875 38.0775 151.891L37.7534 151.924L37.7642 139.585L37.7804 127.247L38.2666 127.155C38.5366 127.107 38.8175 127.063 38.9039 127.058L39.0497 127.053V139.424ZM36.187 134.381V136.209L36.0412 136.242C35.9548 136.258 35.0258 136.393 33.9725 136.544C32.9192 136.695 32.001 136.83 31.9362 136.84L31.812 136.867V143.608V150.349H31.947C32.0226 150.349 32.9841 150.263 34.0859 150.16C35.1932 150.058 36.1168 149.972 36.1384 149.972C36.1654 149.972 36.187 151.32 36.187 152.965V155.958L36.0682 155.979C35.998 155.995 32.0334 156.276 27.2479 156.605C22.4677 156.934 18.4005 157.214 18.2169 157.236L17.8766 157.268V146.375V135.481L19.3241 135.25C20.1181 135.12 24.1691 134.462 28.3281 133.794C32.4871 133.119 35.9548 132.564 36.0412 132.559L36.187 132.553V134.381ZM89.9302 150.646C89.9302 152.458 89.9194 152.83 89.8545 152.83C89.8167 152.83 86.0196 153.072 81.4231 153.369C76.8212 153.666 73.0564 153.903 73.051 153.898C73.0402 153.887 73.024 152.932 73.0132 151.778L72.9862 149.67L81.2016 149.071C85.7225 148.742 89.5305 148.472 89.6763 148.467L89.9302 148.462V150.646ZM191.583 150.996C191.583 151.412 191.572 151.751 191.561 151.751C191.551 151.751 183.476 152.177 173.624 152.695C163.772 153.213 155.702 153.639 155.691 153.639C155.664 153.639 155.653 152.242 155.68 152.231C155.686 152.231 163.739 151.784 173.57 151.239C183.405 150.7 191.48 150.252 191.518 150.247C191.567 150.241 191.583 150.425 191.583 150.996ZM51.0839 153.353L51.0677 155.23L44.6401 155.753C41.1076 156.038 38.1099 156.276 37.9803 156.276L37.7534 156.281L37.7642 154.431L37.7804 152.587L44.316 152.042C47.9133 151.74 50.9056 151.492 50.9759 151.487L51.0947 151.482L51.0839 153.353ZM153.99 153.019V153.747L153.736 153.752C153.59 153.752 140.983 154.41 125.714 155.219L97.9511 156.686L97.9349 156.044C97.9295 155.693 97.9295 155.397 97.9403 155.386C97.9511 155.375 110.536 154.674 125.908 153.833C141.281 152.992 153.887 152.301 153.925 152.296C153.974 152.291 153.99 152.468 153.99 153.019ZM181.796 166.026L181.78 176.477L178.701 176.542C177.01 176.574 175.276 176.601 174.855 176.606L174.083 176.612V166.312C174.083 160.644 174.088 156.011 174.099 156.006C174.121 155.995 181.288 155.596 181.553 155.585L181.807 155.58L181.796 166.026ZM90.2542 156.438V157.079L89.7573 157.117C89.4818 157.133 85.5713 157.338 81.072 157.575C76.5727 157.807 72.7 158.018 72.4731 158.034L72.0518 158.061V157.414V156.766L72.257 156.761C72.3651 156.761 76.3242 156.545 81.045 156.287C85.7711 156.022 89.7735 155.807 89.9464 155.801L90.2542 155.796V156.438ZM191.583 156.659V157.414H191.372C191.097 157.414 184.367 157.721 183.681 157.764L183.152 157.802L183.168 157.052L183.184 156.308L187.154 156.114C189.336 156.006 191.226 155.914 191.356 155.909L191.583 155.904V156.659ZM171.274 166.36V176.595L170.183 176.628C169.578 176.649 168.152 176.676 167.007 176.693C165.862 176.709 164.69 176.736 164.404 176.752L163.874 176.784V166.641V156.497L164.133 156.491C164.274 156.491 165.835 156.411 167.601 156.313C169.367 156.211 170.918 156.13 171.047 156.125L171.274 156.119V166.36ZM153.99 166.899V176.714L153.763 176.741C153.633 176.757 152.229 176.795 150.641 176.827C149.053 176.86 147.659 176.897 147.551 176.908L147.346 176.935V167.201C147.346 161.846 147.362 157.468 147.389 157.462C147.411 157.462 148.875 157.381 150.641 157.284C152.407 157.182 153.887 157.101 153.925 157.095C153.974 157.09 153.99 159.085 153.99 166.899ZM162.578 158.023V158.74L159.245 158.886C157.409 158.967 155.853 159.037 155.788 159.031C155.664 159.031 155.664 159.021 155.664 158.33V157.629L155.842 157.624C155.934 157.624 157.339 157.554 158.959 157.473C160.579 157.387 162.054 157.317 162.243 157.311L162.578 157.306V158.023ZM144.321 167.309C144.321 176.493 144.316 176.989 144.23 176.989C144.176 176.989 142.906 177.027 141.405 177.07C139.903 177.113 138.488 177.151 138.261 177.151H137.84V167.552V157.953L138.072 157.947C138.196 157.947 139.503 157.877 140.973 157.796C142.442 157.71 143.798 157.64 143.987 157.635L144.321 157.629V167.309ZM48.232 158.675V159.29L47.8431 159.323C47.627 159.344 45.3207 159.463 42.7226 159.598C40.1246 159.732 37.8831 159.846 37.7426 159.856L37.4834 159.878V159.269V158.654L37.6886 158.649C37.8669 158.649 47.9997 158.082 48.1672 158.066C48.2158 158.061 48.232 158.217 48.232 158.675ZM134.869 167.687V177.259H134.415C133.908 177.259 130.57 177.345 129.376 177.394L128.604 177.421V167.929V158.438L128.809 158.433C128.917 158.433 130.235 158.363 131.736 158.276C133.238 158.196 134.556 158.125 134.669 158.12L134.869 158.115V167.687ZM125.687 168.037C125.687 173.225 125.681 177.474 125.676 177.474C125.617 177.485 120.183 177.636 119.924 177.636H119.583V168.28C119.583 160.833 119.6 158.924 119.654 158.918C120.323 158.88 125.293 158.611 125.46 158.605L125.687 158.6V168.037ZM36.187 159.355C36.187 159.711 36.1654 159.948 36.133 159.948C36.106 159.948 28.7224 160.336 19.7292 160.811C10.736 161.286 3.27681 161.674 3.14718 161.674H2.91492V161.108V160.541L3.12017 160.536C3.2282 160.536 10.493 160.137 19.2539 159.657C28.0203 159.172 35.4147 158.773 35.6901 158.767L36.187 158.762V159.355ZM116.71 168.399L116.694 177.717L114.452 177.776C113.221 177.814 111.887 177.841 111.498 177.847L110.779 177.852V168.63C110.779 163.556 110.785 159.404 110.795 159.404C110.817 159.393 116.083 159.102 116.413 159.091L116.721 159.085L116.71 168.399ZM108.025 168.738V177.96H107.69C107.279 177.96 103.336 178.057 102.639 178.089L102.137 178.105V168.976V159.84L102.261 159.835C102.348 159.835 106.852 159.581 107.906 159.522L108.025 159.517V168.738ZM66.8665 174.32V188.853H64.841H62.8155V176.984V165.12L61.8865 165.152C60.9791 165.184 51.9643 165.395 51.5268 165.395H51.3107V177.124V188.853H50.0144H48.7181L48.7289 174.816L48.7451 160.784L57.3602 160.293C62.0972 160.024 66.1752 159.797 66.4236 159.792L66.8665 159.786V174.32ZM101.111 160.913V161.555L100.722 161.588C100.506 161.604 100.014 161.631 99.6255 161.647C99.242 161.663 98.6965 161.69 98.4264 161.706L97.9241 161.739V161.064V160.396L98.9936 160.342C99.5769 160.315 100.295 160.288 100.587 160.283L101.111 160.272V160.913ZM90.2542 161.404C90.2542 162.03 90.2488 162.051 90.1354 162.073C90.0652 162.089 89.0768 162.138 87.9317 162.186C86.7866 162.229 85.6631 162.283 85.4363 162.305L85.015 162.337V161.679C85.015 161.194 85.0312 161.027 85.0852 161.021C85.15 161.016 89.8383 160.779 90.1084 160.762L90.2542 160.757V161.404ZM83.9887 169.925V178.931L83.8699 178.952C83.7997 178.968 82.3197 178.99 80.5751 179.001L77.3991 179.022V170.103C77.3991 165.201 77.4045 161.188 77.4153 161.183C77.4423 161.178 83.2757 160.935 83.6268 160.924L83.9887 160.919V169.925ZM76.3729 162.073V162.693L76.146 162.72C75.8813 162.752 73.4129 162.86 72.9862 162.86H72.7V162.24C72.7 161.9 72.7162 161.62 72.7432 161.615C72.9268 161.593 75.4816 161.474 75.8759 161.464L76.3729 161.458V162.073ZM191.583 162.31V163.054L187.656 163.2C185.49 163.281 183.594 163.362 183.443 163.378L183.157 163.405V162.65V161.89L183.551 161.884C183.762 161.884 185.474 161.814 187.343 161.733C189.217 161.647 190.935 161.577 191.167 161.571L191.583 161.566V162.31ZM162.578 163.48V164.208H162.421C162.173 164.208 156.874 164.419 156.248 164.451L155.664 164.483V163.761V163.044L158.867 162.903C160.623 162.828 162.178 162.763 162.324 162.758L162.578 162.752V163.48ZM48.0699 163.426V164.047H47.7621C47.5892 164.047 47.1409 164.063 46.7628 164.084L46.0715 164.117V163.491V162.866L46.6548 162.844C46.9735 162.839 47.4218 162.822 47.654 162.817L48.0699 162.806V163.426ZM35.863 171.106V179.135L34.6369 179.168C33.9563 179.184 32.9841 179.211 32.4763 179.227L31.5419 179.254V171.246C31.5419 163.658 31.5473 163.238 31.6391 163.232C31.974 163.216 35.1986 163.092 35.5011 163.081L35.863 163.076V171.106ZM40.022 163.772C40.022 164.289 40.0112 164.365 39.9302 164.392C39.8761 164.403 39.3738 164.43 38.8067 164.451C38.2449 164.467 37.7156 164.494 37.6346 164.51L37.4834 164.543V163.917V163.292L37.7696 163.286C37.9209 163.281 38.3422 163.259 38.6987 163.238C39.0551 163.222 39.4981 163.2 39.6871 163.195L40.022 163.184V163.772ZM29.5434 171.327V179.308H28.555C28.0094 179.308 27.0858 179.324 26.5025 179.346L25.4384 179.378V171.445V163.507L25.7247 163.502C25.8759 163.502 26.6483 163.464 27.4369 163.432C28.2255 163.394 29.0195 163.356 29.2085 163.351L29.5434 163.346V171.327ZM45.2613 170.895V178.445H44.1432C43.522 178.445 42.5282 178.429 41.9286 178.407L40.8322 178.375V170.965V163.561L41.0374 163.556C41.1455 163.556 42.0421 163.507 43.0197 163.459C44.0028 163.405 44.9048 163.356 45.0344 163.351L45.2613 163.346V170.895ZM23.548 171.516V179.416H22.997C22.6891 179.416 21.8033 179.432 21.0255 179.454L19.605 179.486V171.613V163.739L21.0255 163.685C21.8033 163.658 22.6891 163.631 22.997 163.626L23.548 163.615V171.516ZM14.6898 171.726V179.508L13.2747 179.545C12.4915 179.561 11.6056 179.594 11.3032 179.61L10.7468 179.642V171.871V164.101L11.1411 164.095C11.4436 164.09 13.6311 163.998 14.544 163.944L14.6898 163.939V171.726ZM8.91039 171.942V179.675L7.63027 179.707C6.9227 179.723 6.04769 179.756 5.6858 179.772L5.02144 179.804V172.087C5.02144 167.843 5.02684 164.365 5.03764 164.365C5.05925 164.349 7.85713 164.225 8.38646 164.219L8.91039 164.208V171.942ZM18.5787 164.796V165.379L17.9738 165.411C17.6389 165.433 16.9313 165.465 16.4074 165.481L15.446 165.519V164.942C15.446 164.435 15.4568 164.37 15.5432 164.365C16.2076 164.327 18.1736 164.225 18.3519 164.214L18.5787 164.208V164.796ZM4.42729 165.47V166.026L3.93037 166.064C3.6603 166.08 3.32002 166.096 3.17419 166.096H2.91492V165.535V164.969L3.17419 164.947C3.31462 164.936 3.6549 164.926 3.93037 164.92L4.42729 164.909V165.47ZM101.111 165.956V166.619L100.479 166.651C100.128 166.673 99.4095 166.705 98.8856 166.721L97.9241 166.759V166.101C97.9241 165.745 97.9403 165.449 97.9673 165.443C97.9997 165.438 100.43 165.319 100.938 165.292L101.111 165.287V165.956ZM90.2542 166.419V167.067H90.103C89.8491 167.067 86.0358 167.223 85.5173 167.255L85.015 167.282V166.635C85.015 166.279 85.0204 165.988 85.0312 165.983C85.069 165.966 89.1794 165.788 89.6763 165.778L90.2542 165.772V166.419ZM76.3729 166.953V167.59L75.8219 167.622C75.514 167.644 74.8173 167.671 74.2663 167.687C73.7154 167.703 73.1375 167.73 72.9862 167.746L72.7 167.773V167.126V166.473L72.9322 166.468C73.1267 166.463 75.7787 166.344 76.227 166.322L76.3729 166.312V166.953ZM191.583 167.951V168.674L191.194 168.706C190.794 168.738 183.956 168.954 183.443 168.954H183.157V168.226V167.498L183.362 167.493C183.47 167.493 185.058 167.433 186.884 167.369C188.709 167.298 190.514 167.239 190.897 167.234L191.583 167.228V167.951ZM48.0699 168.107V168.722L47.384 168.754C47.0005 168.776 46.5522 168.792 46.3847 168.792H46.0715V168.199C46.0715 167.503 46.0012 167.563 46.8817 167.536C47.1949 167.53 47.5892 167.514 47.7621 167.509L48.0699 167.498V168.107ZM40.022 168.436V169.051L38.9579 169.083C38.3692 169.105 37.7966 169.132 37.6886 169.143L37.4834 169.17V168.55V167.929L37.8236 167.924C38.0073 167.919 38.488 167.897 38.8877 167.881C39.2874 167.859 39.7087 167.838 39.8221 167.832L40.022 167.822V168.436ZM162.578 168.927C162.578 169.472 162.562 169.655 162.513 169.655C162.475 169.655 161.071 169.704 159.391 169.763C157.711 169.822 156.188 169.871 156.004 169.871H155.664V169.17C155.664 168.781 155.67 168.469 155.68 168.463C155.686 168.463 157.177 168.404 158.986 168.339C160.801 168.269 162.346 168.21 162.432 168.204L162.578 168.199V168.927ZM18.5787 169.326V169.909L17.3526 169.946C16.6721 169.962 15.9699 169.995 15.7863 170.011L15.446 170.043V169.445V168.846L15.6512 168.841C15.7593 168.835 16.2184 168.814 16.6613 168.792C17.1096 168.776 17.7199 168.754 18.0278 168.749L18.5787 168.738V169.326ZM59.4991 169.402C60.2067 169.763 60.682 170.663 60.8657 172.001C60.9089 172.281 60.9251 175.938 60.9251 183.52V194.623H64.625H68.3249V195.297V195.971H57.7653H47.2057V195.297V194.623H51.1217H55.0322L55.0538 184.388C55.0755 173.171 55.0538 173.937 55.3941 172.567C55.8424 170.782 56.7121 169.623 57.8517 169.305C58.0462 169.251 58.3216 169.229 58.6835 169.24C59.1426 169.256 59.2669 169.278 59.4991 169.402ZM4.42729 169.898V170.464H4.20044C4.0708 170.464 3.73052 170.48 3.44425 170.502L2.91492 170.534V169.962C2.91492 169.466 2.92572 169.391 3.01215 169.369C3.06076 169.353 3.40104 169.342 3.76833 169.337L4.42729 169.331V169.898ZM101.111 171.025V171.694L99.7228 171.726C98.9558 171.747 98.2374 171.774 98.1294 171.791L97.9241 171.823V171.143V170.464L98.2374 170.459C98.4048 170.453 98.945 170.432 99.4365 170.41C99.928 170.394 100.506 170.372 100.722 170.367L101.111 170.356V171.025ZM90.2542 171.375V172.022L89.9734 172.049C89.6547 172.082 86.0898 172.19 85.4363 172.19H85.015V171.543V170.895L85.5713 170.89C85.8738 170.89 86.9 170.852 87.8507 170.82C88.8013 170.782 89.7303 170.744 89.9194 170.744L90.2542 170.734V171.375ZM76.3729 171.861V172.497L75.2818 172.535C74.6768 172.551 73.8504 172.583 73.4453 172.599L72.7 172.637V171.979V171.327L73.2833 171.321C73.602 171.316 74.2501 171.294 74.7254 171.273C75.2008 171.257 75.7679 171.235 75.984 171.23L76.3729 171.219V171.861ZM48.0699 172.804V173.414L47.654 173.452C47.4272 173.468 46.9789 173.484 46.6548 173.484H46.0661L46.0823 172.875L46.0985 172.271L46.8817 172.244C47.3138 172.227 47.7567 172.206 47.8701 172.2L48.0699 172.19V172.804ZM40.022 173.074V173.689L39.363 173.721C38.9957 173.737 38.4232 173.759 38.0937 173.775L37.4834 173.797V173.182V172.567L37.8236 172.562C38.3044 172.551 39.9356 172.481 39.9842 172.47C40.0058 172.465 40.022 172.734 40.022 173.074ZM191.583 173.592C191.583 174.336 191.583 174.347 191.464 174.347C191.394 174.347 189.628 174.395 187.532 174.455C185.436 174.514 183.594 174.562 183.443 174.562H183.157V173.834C183.157 173.29 183.173 173.106 183.227 173.101C183.26 173.101 185.118 173.042 187.343 172.977C189.574 172.907 191.437 172.848 191.491 172.842C191.572 172.837 191.583 172.907 191.583 173.592ZM18.5787 173.802V174.39L18.0278 174.422C17.7199 174.438 17.0178 174.471 16.4614 174.487L15.446 174.519V173.921V173.322L15.9213 173.317C16.3534 173.311 18.0764 173.247 18.4329 173.225L18.5787 173.214V173.802ZM4.41649 174.859C4.40569 174.864 4.0654 174.886 3.6603 174.908L2.91492 174.94V174.347V173.759L3.6603 173.743L4.40028 173.727L4.41649 174.287C4.42189 174.595 4.42189 174.854 4.41649 174.859ZM162.578 174.395V175.091L162.081 175.123C161.806 175.139 160.363 175.177 158.878 175.21C157.393 175.242 156.064 175.274 155.923 175.29L155.664 175.312V174.589V173.861L156.113 173.856C156.356 173.856 157.49 173.818 158.635 173.786C159.78 173.748 161.136 173.71 161.649 173.71L162.578 173.7V174.395ZM101.111 176.067V176.714L100.884 176.741C100.754 176.757 100.036 176.779 99.2906 176.795L97.9241 176.827V176.153V175.479L98.8045 175.463C99.2852 175.458 100.004 175.441 100.398 175.436L101.111 175.425V176.067ZM90.2542 176.358V177.027L88.8661 177.065C88.0991 177.081 86.9216 177.113 86.2465 177.135L85.015 177.167V176.515V175.857L85.4633 175.851C85.9872 175.846 90.157 175.716 90.2164 175.706C90.238 175.7 90.2542 175.997 90.2542 176.358ZM76.3729 176.746C76.3729 177.345 76.3675 177.367 76.254 177.388C76.1838 177.404 75.3574 177.431 74.4176 177.448L72.7 177.485V176.86C72.7 176.515 72.7054 176.229 72.7162 176.223C72.7324 176.207 74.6768 176.153 75.6059 176.137L76.3729 176.126V176.746ZM48.0699 177.523V178.105L47.8215 178.143C47.681 178.159 47.2327 178.176 46.8222 178.176H46.0715V177.588C46.0715 177.07 46.0823 176.995 46.1687 176.973C46.2173 176.957 46.6656 176.946 47.1679 176.941L48.0699 176.935V177.523ZM40.022 177.739V178.327L39.6871 178.359C39.4981 178.375 38.9255 178.397 38.4124 178.402L37.4834 178.418V177.814V177.21L37.9857 177.189C38.2557 177.183 38.8283 177.167 39.255 177.162L40.022 177.151V177.739ZM18.5787 178.327V178.914L17.5957 178.947C17.061 178.968 16.3534 178.984 16.0293 178.984H15.446V178.418C15.446 178.105 15.4514 177.847 15.4622 177.841C15.4784 177.83 17.2932 177.771 18.0278 177.755L18.5787 177.744V178.327ZM4.42729 178.715V179.308H3.67111H2.91492V178.742V178.181L3.55228 178.159C3.89796 178.154 4.23825 178.138 4.30846 178.132C4.42729 178.122 4.42729 178.132 4.42729 178.715ZM191.583 179.254V180.009H191.248C191.059 180.009 183.022 180.165 173.381 180.36C163.739 180.554 155.81 180.71 155.761 180.71C155.675 180.71 155.664 180.64 155.664 179.993V179.281L173.208 178.898C182.854 178.688 190.935 178.51 191.167 178.504L191.583 178.499V179.254ZM153.99 180.036V180.764H153.439C153.131 180.764 140.681 181.007 125.768 181.303C110.855 181.6 98.4912 181.843 98.2914 181.843H97.9241V181.195C97.9241 180.84 97.9295 180.548 97.9403 180.543C97.9511 180.543 152.958 179.324 153.574 179.313L153.99 179.308V180.036ZM90.2542 181.357V182.004L90.0274 182.01C89.8978 182.01 85.9548 182.091 81.261 182.182L72.727 182.355L72.7108 181.74C72.7054 181.406 72.7054 181.115 72.7216 181.104C72.7486 181.077 87.7642 180.732 89.4332 180.716L90.2542 180.71V181.357ZM48.0699 182.247V182.867H47.492C47.0221 182.867 41.5289 182.97 38.1423 183.04L37.4834 183.056V182.447V181.843L37.9587 181.837C38.2179 181.837 40.2272 181.789 42.4256 181.74C44.6239 181.686 46.7952 181.638 47.2489 181.632L48.0699 181.627V182.247ZM36.187 182.49C36.187 183.067 36.1816 183.083 36.0682 183.083C35.998 183.083 28.6792 183.229 19.794 183.406C10.9143 183.584 3.48206 183.73 3.28221 183.73H2.91492V183.164V182.598L3.06616 182.592C9.34249 182.447 34.0967 181.907 34.9609 181.902L36.187 181.897V182.49ZM191.583 184.916V185.671H190.546C189.973 185.671 182.298 185.768 173.489 185.887C164.679 186.006 157.069 186.103 156.572 186.103H155.664V185.402V184.701L156.113 184.695C156.356 184.695 163.955 184.577 173.002 184.436C182.05 184.291 189.93 184.172 190.519 184.167L191.583 184.161V184.916ZM153.99 185.429V186.157H153.628C153.045 186.157 100.625 186.847 99.2096 186.874L97.9241 186.901V186.232V185.564L98.5345 185.558C99.1664 185.558 153.358 184.722 153.763 184.706L153.99 184.701V185.429ZM90.2542 186.335V186.998L82.7356 187.09C78.5982 187.144 74.6444 187.198 73.9585 187.219L72.7 187.251V186.594V185.941L73.3913 185.936C73.7694 185.936 77.4801 185.876 81.6391 185.812C85.7982 185.742 89.4386 185.682 89.7303 185.677L90.2542 185.671V186.335ZM48.0699 186.928V187.543L46.2497 187.575C45.2451 187.597 42.9171 187.624 41.0752 187.645C39.2334 187.661 37.6724 187.683 37.6076 187.699C37.4834 187.721 37.4834 187.715 37.4834 187.1V186.48L38.0397 186.475C38.3422 186.47 40.3677 186.437 42.5336 186.405C44.7049 186.367 46.833 186.329 47.276 186.329L48.0699 186.319V186.928ZM36.187 187.1V187.721H35.7711C35.5389 187.721 28.1175 187.818 19.2809 187.936C10.4444 188.055 3.14718 188.152 3.06616 188.152H2.91492V187.586C2.91492 187.273 2.92032 187.02 2.93113 187.014C2.93653 187.009 10.2715 186.896 19.2269 186.75C28.1823 186.61 35.6631 186.491 35.8522 186.486L36.187 186.48V187.1ZM52.337 191.738V192.412H49.7714H47.2057V191.738V191.064H49.7714H52.337V191.738ZM68.3249 191.738V192.412H65.5432H62.7615V191.738V191.064H65.5432H68.3249V191.738Z" fill="white"/>
<path d="M182.887 57.093C180.824 57.6647 179.128 58.1338 179.122 58.1338C179.079 58.1338 179.111 74.2041 179.149 74.2041C179.214 74.2041 186.63 72.4245 186.652 72.4029C186.662 72.3975 186.662 68.7143 186.657 64.2168L186.641 56.0522L182.887 57.093Z" fill="white"/>
<path d="M172.246 60.0427L168.708 61.0295L168.692 68.8597C168.681 75.509 168.692 76.6846 168.757 76.6846C168.795 76.6846 170.296 76.334 172.09 75.9026C173.883 75.4712 175.465 75.0883 175.611 75.0614L175.865 75.002V67.0262C175.865 62.6419 175.849 59.0504 175.827 59.0558C175.8 59.0558 174.191 59.5034 172.246 60.0427Z" fill="white"/>
<path d="M162.119 62.8524L158.77 63.7799L158.754 71.4376L158.743 79.0952L159.51 78.9119C159.937 78.8148 161.476 78.4427 162.929 78.0976L165.576 77.4666L165.592 69.6849C165.603 63.4779 165.592 61.9086 165.538 61.914C165.5 61.9194 163.961 62.3401 162.119 62.8524Z" fill="white"/>
<path d="M140.098 72.1118L136.598 73.0878V80.0391C136.598 86.6182 136.603 86.9849 136.695 86.9849C136.743 86.9849 138.331 86.6128 140.217 86.1598L143.646 85.3347L143.663 78.2325C143.668 74.3282 143.657 71.1303 143.636 71.1357C143.609 71.1357 142.021 71.5779 140.098 72.1118Z" fill="white"/>
<path d="M131.115 74.614C129.808 74.9753 128.334 75.3905 127.837 75.5307L126.929 75.7788V82.5413C126.929 87.9771 126.94 89.3037 126.999 89.3037C127.059 89.3037 132.876 87.9232 133.373 87.7884L133.573 87.7344V80.8372C133.573 77.0407 133.557 73.9345 133.535 73.9399C133.508 73.9399 132.422 74.2473 131.115 74.614Z" fill="white"/>
<path d="M120.88 77.4558L117.774 78.3295L117.758 84.9248C117.747 90.1773 117.758 91.5146 117.812 91.5146C117.849 91.5093 119.27 91.1749 120.961 90.7705L124.039 90.0263L124.056 83.3015C124.061 79.6021 124.05 76.5768 124.029 76.5822C124.002 76.5822 122.586 76.9813 120.88 77.4558Z" fill="white"/>
<path d="M111.94 79.9419L109.024 80.7562L109.008 87.1951C108.997 93.305 109.002 93.6286 109.089 93.607C109.143 93.5962 110.504 93.2727 112.113 92.8844L115.046 92.1887V85.6474C115.046 79.4565 115.041 79.1114 114.954 79.1168C114.9 79.1222 113.545 79.4889 111.94 79.9419Z" fill="white"/>
<path d="M104.271 82.0721C103.142 82.3902 101.883 82.7462 101.478 82.8594L100.733 83.0643V89.3414C100.733 94.3459 100.749 95.6186 100.803 95.6024C100.836 95.5862 102.126 95.2788 103.666 94.9121L106.458 94.2434V87.8638C106.458 82.7947 106.442 81.4843 106.393 81.4897C106.356 81.4951 105.4 81.7539 104.271 82.0721Z" fill="white"/>
<path d="M81.0721 82.2283L75.4277 83.9378L75.4115 85.9762C75.4007 87.5832 75.4115 88.0092 75.4655 88.0092C75.5033 88.0146 78.0797 87.2758 81.1963 86.3806L86.8515 84.7467V82.6327C86.8515 80.9718 86.8353 80.5134 86.7867 80.5188C86.7488 80.5188 84.1778 81.2899 81.0721 82.2283Z" fill="white"/>
<path d="M81.0612 87.6748L75.4546 89.271V90.3657C75.4546 91.207 75.4708 91.4604 75.5248 91.4604C75.5572 91.4604 78.1174 90.7594 81.207 89.902L86.8244 88.3435L86.8406 87.2056C86.8514 86.1432 86.846 86.0677 86.7595 86.0731C86.7055 86.0785 84.1399 86.7958 81.0612 87.6748Z" fill="white"/>
<path d="M183.011 88.3542L179.376 89.1145V96.8153V104.511L179.5 104.484C179.565 104.473 181.196 104.187 183.13 103.864C185.058 103.535 186.646 103.26 186.652 103.249C186.662 103.243 186.662 99.7166 186.657 95.4132L186.641 87.5938L183.011 88.3542Z" fill="white"/>
<path d="M172.922 90.4631C171.199 90.8298 169.659 91.1534 169.508 91.1911L169.222 91.2505V98.7463C169.222 102.866 169.232 106.237 169.243 106.237C169.276 106.237 175.865 105.11 176.044 105.072L176.189 105.04V97.4143C176.189 91.3475 176.173 89.789 176.125 89.7944C176.087 89.7998 174.645 90.1018 172.922 90.4631Z" fill="white"/>
<path d="M162.837 92.5823L159.607 93.2672V100.558C159.607 106.361 159.623 107.854 159.677 107.854C159.71 107.854 161.206 107.606 162.999 107.304L166.251 106.754V99.3232C166.251 92.2803 166.245 91.8921 166.159 91.8975C166.105 91.8975 164.609 92.2102 162.837 92.5823Z" fill="white"/>
<path d="M182.995 114.806L179.403 115.323L179.387 125.963C179.376 136.064 179.382 136.598 179.468 136.598C179.522 136.598 181.164 136.447 183.119 136.263L186.668 135.929V125.1C186.668 119.147 186.652 114.272 186.63 114.277C186.603 114.283 184.972 114.514 182.995 114.806Z" fill="white"/>
<path d="M172.705 116.294C170.836 116.575 169.297 116.801 169.292 116.801C169.281 116.806 169.275 121.477 169.275 127.187C169.275 136.161 169.286 137.568 169.351 137.568C169.394 137.568 170.95 137.423 172.808 137.245C174.666 137.067 176.2 136.921 176.216 136.921C176.232 136.921 176.243 132.165 176.243 126.352C176.243 117.928 176.227 115.782 176.178 115.787C176.14 115.793 174.579 116.019 172.705 116.294Z" fill="white"/>
<path d="M162.848 117.717L159.634 118.187L159.618 128.341L159.607 138.501L159.888 138.474C160.044 138.458 161.551 138.312 163.242 138.156L166.305 137.87V127.554V117.238L166.186 117.243C166.116 117.248 164.614 117.459 162.848 117.717Z" fill="white"/>
<path d="M61.0762 89.8805L58.2783 90.7218V98.2662C58.2783 104.392 58.2891 105.805 58.3485 105.805C58.3971 105.805 62.3671 104.888 63.8309 104.538L63.9497 104.511V96.7724C63.9497 92.5175 63.9335 89.0338 63.9119 89.0392C63.8849 89.0392 62.6102 89.4167 61.0762 89.8805Z" fill="white"/>
<path d="M44.0353 93.4182L39.2119 94.8796V96.6754C39.2119 97.6623 39.2281 98.4712 39.2551 98.4712C39.2767 98.4712 41.4697 97.8456 44.1271 97.0745L48.9613 95.6832L48.9775 93.8119C48.9883 92.3343 48.9775 91.946 48.9235 91.9514C48.8857 91.9514 46.6819 92.6147 44.0353 93.4182Z" fill="white"/>
<path d="M44.0083 98.2124L39.2119 99.566V100.531C39.2119 101.265 39.2281 101.491 39.2821 101.491C39.3145 101.491 41.5183 100.893 44.1649 100.159L48.9883 98.8218V97.835C48.9883 96.9344 48.9829 96.8535 48.8965 96.8589C48.8425 96.8589 46.6441 97.4682 44.0083 98.2124Z" fill="white"/>
<path d="M33.9995 101.895L31.839 102.505L31.8228 107.466L31.812 112.427L32.2009 112.33C32.417 112.276 33.4162 112.034 34.4208 111.791L36.2411 111.349V106.312C36.2411 103.54 36.2249 101.275 36.2033 101.281C36.1763 101.281 35.1878 101.561 33.9995 101.895Z" fill="white"/>
<path d="M27.7502 103.642L25.7085 104.214V109.051C25.7085 111.715 25.7247 113.894 25.7517 113.894C25.7733 113.889 26.7131 113.662 27.842 113.387L29.8945 112.886L29.9107 107.973C29.9215 104.052 29.9107 103.055 29.8567 103.06C29.8189 103.065 28.8683 103.324 27.7502 103.642Z" fill="white"/>
<path d="M23.0351 104.969C22.5922 105.099 21.6847 105.352 21.0258 105.536L19.8213 105.87V110.583C19.8213 114.315 19.8375 115.296 19.8915 115.296C19.9239 115.296 20.8367 115.086 21.917 114.827L23.8723 114.353V109.542C23.8723 106.895 23.8669 104.727 23.8615 104.732C23.8507 104.732 23.4834 104.84 23.0351 104.969Z" fill="white"/>
<path d="M140.217 97.5007C138.418 97.8835 136.868 98.2071 136.776 98.2287L136.598 98.261V105.104C136.598 108.874 136.603 111.953 136.614 111.953C136.619 111.953 138.191 111.683 140.098 111.36C142.004 111.031 143.576 110.767 143.592 110.767C143.609 110.767 143.619 107.623 143.619 103.783C143.619 98.2287 143.603 96.7996 143.555 96.805C143.517 96.8104 142.015 97.1232 140.217 97.5007Z" fill="white"/>
<path d="M130.44 99.5495C128.792 99.9001 127.313 100.213 127.161 100.251L126.875 100.31V106.97V113.625L126.999 113.598C127.129 113.571 133.454 112.492 133.492 112.492C133.508 112.492 133.519 109.434 133.519 105.697C133.519 101.96 133.502 98.9024 133.481 98.9078C133.454 98.9132 132.087 99.199 130.44 99.5495Z" fill="white"/>
<path d="M120.815 101.561L117.693 102.219V108.706V115.188L117.817 115.162C117.947 115.135 123.942 114.11 123.985 114.11C124.002 114.11 124.012 111.139 124.012 107.504C124.012 103.869 123.996 100.898 123.975 100.903C123.948 100.903 122.527 101.205 120.815 101.561Z" fill="white"/>
<path d="M114.614 102.866C114.452 102.904 113.118 103.184 111.659 103.492L108.997 104.042V110.346C108.997 113.808 109.013 116.645 109.04 116.645C109.061 116.645 110.406 116.423 112.032 116.148L114.992 115.647V109.213C114.992 105.681 114.976 102.785 114.954 102.791C114.927 102.791 114.776 102.828 114.614 102.866Z" fill="white"/>
<path d="M105.702 104.727C105.329 104.808 104.06 105.077 102.883 105.32L100.733 105.768V111.91C100.733 116.785 100.749 118.047 100.803 118.047C100.836 118.047 102.116 117.837 103.639 117.578L106.404 117.109V110.837C106.404 107.385 106.399 104.57 106.393 104.57C106.383 104.576 106.075 104.646 105.702 104.727Z" fill="white"/>
<path d="M13.6635 107.525C13.172 107.666 12.27 107.924 11.6542 108.097L10.5308 108.41V112.956C10.5308 115.458 10.547 117.507 10.574 117.507C10.5956 117.502 11.5354 117.281 12.6643 117.006L14.7168 116.504L14.733 111.883C14.7438 107.504 14.7384 107.261 14.652 107.267C14.598 107.267 14.155 107.385 13.6635 107.525Z" fill="white"/>
<path d="M6.6686 109.494L4.72412 110.044L4.70792 114.477C4.70252 116.914 4.71332 118.91 4.73493 118.91C4.76193 118.904 5.66395 118.689 6.74962 118.43L8.7211 117.955L8.7373 113.447C8.74811 109.85 8.7373 108.933 8.68329 108.939C8.64548 108.939 7.73806 109.192 6.6686 109.494Z" fill="white"/>
<path d="M64.1227 126.567C62.9722 126.804 62.189 128.212 61.8055 130.719C61.7191 131.286 61.7137 132.148 61.6975 140.815C61.6867 146.294 61.6975 150.295 61.7245 150.295C61.7515 150.295 62.767 150.209 63.9823 150.106C65.1922 150.004 66.2292 149.917 66.2832 149.917C66.375 149.917 66.3804 149.481 66.3804 139.952C66.3804 133.108 66.3642 129.797 66.321 129.393C66.2508 128.719 66.0672 127.926 65.8727 127.511C65.7161 127.171 65.365 126.772 65.1219 126.659C64.8951 126.551 64.4144 126.508 64.1227 126.567Z" fill="white"/>
<path d="M58.3268 127.883C57.8785 128.045 57.5814 128.363 57.2519 129.053C56.8847 129.83 56.6254 130.957 56.4958 132.364C56.4309 133.055 56.4201 150.727 56.485 150.727C56.5066 150.727 57.2897 150.667 58.2242 150.592C59.1586 150.516 59.9904 150.457 60.0768 150.457H60.2227V140.502C60.2227 129.657 60.2281 129.97 59.9202 128.989C59.6177 128.029 59.0398 127.63 58.3268 127.883Z" fill="white"/>
<path d="M140.379 121.147C138.731 121.395 137.181 121.627 136.938 121.66L136.49 121.724V131.183V140.647L136.749 140.615C137.127 140.572 143.355 139.995 143.468 139.995C143.56 139.995 143.565 139.596 143.565 130.342C143.565 121.185 143.56 120.689 143.474 120.694C143.42 120.694 142.026 120.899 140.379 121.147Z" fill="white"/>
<path d="M129.981 122.69C128.231 122.949 126.789 123.164 126.783 123.17C126.772 123.17 126.767 127.295 126.767 132.337V141.505H126.945C127.113 141.505 132.547 141.009 133.184 140.939L133.465 140.906V131.55V122.199L133.319 122.204C133.232 122.21 131.736 122.425 129.981 122.69Z" fill="white"/>
<path d="M120.691 124.065C119.027 124.313 117.661 124.518 117.655 124.518C117.645 124.518 117.639 128.535 117.639 133.443V142.368L117.817 142.362C117.909 142.362 119.33 142.233 120.961 142.082L123.932 141.801L123.948 132.699L123.959 123.601L123.84 123.606C123.77 123.612 122.355 123.817 120.691 124.065Z" fill="white"/>
<path d="M111.806 125.386C110.277 125.618 109.008 125.807 108.986 125.807C108.959 125.812 108.943 129.717 108.943 134.494C108.943 142.772 108.948 143.177 109.04 143.177C109.094 143.177 110.434 143.053 112.022 142.907C113.61 142.756 114.917 142.637 114.922 142.637C114.933 142.637 114.938 138.658 114.938 133.793V124.949L114.765 124.955C114.668 124.96 113.334 125.149 111.806 125.386Z" fill="white"/>
<path d="M103.45 126.616L100.733 127.025V135.476V143.932H100.863C100.933 143.932 102.17 143.824 103.612 143.689C105.054 143.554 106.275 143.446 106.318 143.446C106.393 143.446 106.404 142.589 106.404 134.818V126.19L106.285 126.195C106.215 126.2 104.941 126.389 103.45 126.616Z" fill="white"/>
<path d="M21.944 122.388C20.9286 122.604 20.0373 122.792 19.9617 122.814L19.8213 122.846V127.457C19.8213 131.108 19.8375 132.068 19.8915 132.068C19.9239 132.068 20.8367 131.917 21.917 131.734L23.8723 131.394V126.691C23.8723 124.103 23.8561 121.983 23.8345 121.989C23.8075 121.989 22.9595 122.172 21.944 122.388Z" fill="white"/>
<path d="M13.7986 124.06C13.3557 124.157 12.4374 124.351 11.7623 124.491L10.5308 124.75V129.194C10.5308 133.238 10.5362 133.632 10.6172 133.632C10.7036 133.632 14.3765 133.012 14.625 132.958L14.7438 132.931V128.401C14.7438 124.809 14.7276 123.871 14.679 123.876C14.6412 123.882 14.2469 123.963 13.7986 124.06Z" fill="white"/>
<path d="M6.58773 125.575C5.56148 125.791 4.71887 125.969 4.71347 125.974C4.70267 125.974 4.69727 127.931 4.69727 130.32V134.667L4.8485 134.635C4.92952 134.618 5.78293 134.467 6.74977 134.306C7.7166 134.144 8.55921 133.998 8.62943 133.982L8.74825 133.955V129.56V125.165L8.60242 125.17C8.516 125.176 7.61398 125.354 6.58773 125.575Z" fill="white"/>
<path d="M12.5292 139.596C11.4436 139.752 10.5524 139.882 10.547 139.887C10.5362 139.887 10.5308 142.681 10.5308 146.089V152.296L10.79 152.264C11.1087 152.226 14.5601 151.913 14.6628 151.913C14.733 151.913 14.7438 151.099 14.7438 145.604V139.294L14.625 139.299C14.5547 139.305 13.6149 139.434 12.5292 139.596Z" fill="white"/>
<path d="M6.64174 140.453C5.58848 140.615 4.71887 140.745 4.71347 140.745C4.70267 140.75 4.69727 143.468 4.69727 146.784V152.824L4.87551 152.797C5.01594 152.776 8.64023 152.452 8.72665 152.452C8.73745 152.452 8.74825 149.686 8.74825 146.304C8.74825 140.486 8.74285 140.157 8.65643 140.162C8.60242 140.168 7.695 140.297 6.64174 140.453Z" fill="white"/>
<path d="M28.1389 137.38C27.2639 137.509 26.3457 137.644 26.1026 137.676L25.6543 137.741V144.347V150.953L25.8055 150.926C25.8866 150.91 26.8426 150.818 27.9391 150.721L29.9213 150.543V143.84C29.9213 137.488 29.9159 137.137 29.8295 137.142C29.7755 137.148 29.0139 137.256 28.1389 137.38Z" fill="white"/>
<path d="M21.7928 138.302C20.7233 138.458 19.8429 138.593 19.8375 138.593C19.8267 138.593 19.8213 141.494 19.8213 145.037V151.481L20.0265 151.454C20.1886 151.433 23.7643 151.104 23.8507 151.104C23.8615 151.104 23.8723 148.154 23.8723 144.552C23.8723 139.342 23.8561 138 23.8075 138.005C23.7697 138.01 22.8622 138.14 21.7928 138.302Z" fill="white"/>
<path d="M190.611 200.135C189.26 200.615 188.148 201.008 188.137 201.019C188.099 201.046 188.369 201.515 188.688 201.984C189.093 202.578 189.838 203.327 190.481 203.786C191.054 204.19 192.269 204.799 192.987 205.031C196.147 206.072 200.214 205.894 202.996 204.605C204.379 203.964 205.561 202.987 206.296 201.887C206.599 201.429 206.798 201.057 206.755 201.019C206.734 200.998 201.808 199.261 201.77 199.261C201.759 199.261 201.737 199.32 201.716 199.385C201.656 199.633 201.159 200.318 200.814 200.625C200.403 200.998 199.69 201.37 199.064 201.531C198.729 201.623 198.416 201.65 197.659 201.672C196.811 201.693 196.617 201.682 196.12 201.58C194.77 201.305 193.841 200.652 193.301 199.601C193.203 199.412 193.111 199.261 193.095 199.266C193.079 199.266 191.961 199.66 190.611 200.135Z" fill="white"/>
<path d="M103.671 206.439C97.4164 206.816 92.2581 210.338 90.1786 215.655C89.1253 218.351 88.8121 221.468 89.282 224.553C89.9247 228.775 92.1501 232.308 95.5745 234.546C97.5082 235.808 99.8145 236.622 102.461 236.983C103.325 237.102 105.686 237.15 106.701 237.069C109.056 236.881 110.995 236.32 112.74 235.328L113.318 234.999V230.825V226.651L112.832 227.071C111.573 228.15 110.271 228.899 108.878 229.352C106.577 230.102 104.011 229.935 102.018 228.91C100.052 227.907 98.7505 226.144 98.2374 223.798C98.1293 223.302 98.1131 223.081 98.1131 221.991C98.1131 220.913 98.1293 220.676 98.2374 220.142C98.5885 218.421 99.3176 217.009 100.436 215.898C101.489 214.846 102.71 214.199 104.26 213.865C105.07 213.692 106.766 213.687 107.625 213.865C109.537 214.247 111.265 215.197 112.816 216.712C113.069 216.96 113.285 217.165 113.296 217.165C113.307 217.165 113.318 215.261 113.318 212.937V208.709L112.956 208.493C110.412 206.994 106.998 206.234 103.671 206.439Z" fill="white"/>
<path d="M0.754395 221.775V236.309H5.12946H9.50453L9.51533 230.139L9.53154 223.965L13.9552 230.118C16.3912 233.499 18.4113 236.276 18.4383 236.287C18.4707 236.298 20.9337 236.303 23.9152 236.298L29.3274 236.282L23.3049 228.818C19.9885 224.709 17.2878 221.322 17.2932 221.29C17.3148 221.22 28.9061 207.355 28.9547 207.355C28.9709 207.35 31.5905 212.058 34.7719 217.812L40.5621 228.273L38.4826 232.237C37.3375 234.416 36.4031 236.228 36.4031 236.255C36.4031 236.292 38.0019 236.309 41.0644 236.309H45.7204L52.418 222.358C56.1017 214.684 59.2399 208.142 59.3965 207.824L59.6774 207.242L54.9188 207.253L50.1603 207.269L47.7405 213.228C46.4063 216.507 45.3045 219.224 45.2829 219.268C45.2613 219.316 44.0838 217.008 42.2365 213.292L39.2226 207.242H28.9871H18.7516L14.1389 213.266L9.53154 219.284L9.51533 213.266L9.50453 207.242H5.12946H0.754395V221.775Z" fill="white"/>
<path d="M62.0596 221.775V236.309H66.4346H70.8097V231.514V226.72L73.8777 226.693C76.6593 226.677 77.005 226.661 77.6532 226.559C80.3646 226.127 82.4117 225.146 83.9187 223.566C86.9921 220.33 87.3269 214.894 84.6695 211.259C83.0005 208.973 80.3214 207.619 76.8322 207.296C76.4649 207.263 73.5428 207.242 69.1515 207.242H62.0596V221.775ZM74.7527 213.789C76.0868 214.064 76.8916 214.668 77.2751 215.687C77.4641 216.183 77.5127 217.326 77.3777 217.871C77.2265 218.459 76.9996 218.874 76.6269 219.235C76.2272 219.629 75.8059 219.861 75.174 220.044C74.5042 220.238 73.856 220.292 72.2411 220.292H70.8097V216.97V213.648L72.5543 213.67C73.9155 213.692 74.3908 213.719 74.7527 213.789Z" fill="white"/>
<path d="M117.639 221.775V236.309H121.987H126.335L126.346 230.118L126.362 223.932L130.813 230.118L135.269 236.309H140.714C143.706 236.309 146.158 236.298 146.158 236.282C146.158 236.265 143.447 232.89 140.13 228.78L134.108 221.311L134.745 220.546C135.102 220.125 137.737 216.97 140.611 213.535C143.484 210.105 145.834 207.285 145.834 207.269C145.834 207.253 143.533 207.242 140.719 207.242H135.599L130.98 213.282L126.362 219.316L126.346 213.282L126.335 207.242H121.987H117.639V221.775Z" fill="white"/>
<path d="M148.588 221.775V236.309L152.866 236.298L157.144 236.282L163.091 227.648L169.032 219.02L169.049 227.664L169.059 236.309H173.272H177.485V221.775V207.242H173.202H168.919L162.983 215.87L157.041 224.493L157.025 215.87L157.014 207.242H152.801H148.588V221.775Z" fill="white"/>
<path d="M182.995 221.775V236.309H187.278H191.556L197.498 227.675L203.439 219.047L203.455 227.68L203.466 236.309H207.679H211.892V221.775V207.242H207.614L203.331 207.247L197.39 215.886L191.448 224.526L191.432 215.881L191.421 207.242H187.208H182.995V221.775Z" fill="white"/>
<path d="M204.265 239.156C203.347 239.507 203.379 239.453 203.774 240.041C204.173 240.639 204.762 241.033 205.572 241.254C206.058 241.383 207.295 241.383 207.787 241.254C208.3 241.119 208.872 240.817 209.202 240.521C209.467 240.278 209.893 239.658 209.893 239.512C209.893 239.48 209.645 239.361 209.342 239.248C209.035 239.135 208.673 239 208.532 238.946L208.278 238.849L208.143 239.081C207.625 239.96 206.112 240.073 205.399 239.286C205.291 239.167 205.189 239.021 205.167 238.957C205.151 238.892 205.119 238.843 205.097 238.849C205.075 238.854 204.703 238.989 204.265 239.156Z" fill="white"/>
<path d="M16.1481 242.192C13.4744 242.494 11.4813 244.09 10.8764 246.42C10.6009 247.477 10.6495 248.895 10.9844 249.888C11.665 251.872 13.3448 253.242 15.6079 253.657C16.3155 253.786 17.7793 253.781 18.4382 253.652C21.0093 253.145 22.7485 251.532 23.2184 249.213C23.4236 248.221 23.3534 246.943 23.0456 246.043C22.3704 244.069 20.75 242.721 18.5246 242.295C17.8927 242.171 16.7692 242.122 16.1481 242.192ZM18.3788 244.382C19.5347 244.786 20.3071 245.541 20.7068 246.657C20.8688 247.1 20.8742 247.159 20.8742 247.957C20.8742 248.69 20.858 248.841 20.75 249.17C20.5393 249.796 20.3125 250.163 19.8426 250.632C19.4807 250.998 19.324 251.112 18.8973 251.317C18.1844 251.662 17.7199 251.748 16.834 251.721C16.2561 251.699 16.04 251.667 15.689 251.554C14.425 251.139 13.5338 250.179 13.226 248.895C13.0693 248.243 13.1017 247.375 13.307 246.744C13.7067 245.492 14.6465 244.624 15.9644 244.29C16.3155 244.204 16.5316 244.187 17.1473 244.198C17.8279 244.214 17.9521 244.236 18.3788 244.382Z" fill="white"/>
<path d="M33.7185 242.192C31.1259 242.457 29.203 244.053 28.5657 246.48C28.4522 246.906 28.436 247.078 28.436 247.984C28.436 248.885 28.4522 249.063 28.5657 249.467C28.8303 250.443 29.2894 251.22 30.0564 251.986C31.1151 253.032 32.2494 253.566 33.8103 253.733C35.0256 253.868 36.3166 253.679 37.3914 253.22L37.5913 253.134V251.835V250.54L37.2834 250.805C36.8567 251.166 36.565 251.344 36.0519 251.533C35.6792 251.673 35.528 251.7 34.9446 251.721C33.6699 251.764 32.7139 251.403 31.8605 250.551C31.1259 249.818 30.8072 248.955 30.8558 247.822C30.9422 245.73 32.5734 244.182 34.6746 244.182C35.6306 244.182 36.4786 244.49 37.2024 245.099L37.5913 245.423V244.128V242.834L37.3914 242.732C37.0835 242.581 36.4246 242.365 35.9655 242.273C35.4415 242.165 34.3559 242.128 33.7185 242.192Z" fill="white"/>
<path d="M105.54 242.166C103.822 242.327 102.688 242.791 101.657 243.778C100.447 244.937 99.8525 246.501 99.9389 248.308C99.9983 249.489 100.344 250.476 101.003 251.344C101.932 252.573 103.299 253.409 104.838 253.679C105.437 253.781 106.917 253.771 107.49 253.657C107.987 253.56 108.451 253.42 108.856 253.242L109.105 253.14V251.84V250.535L108.813 250.799C108.424 251.144 108.014 251.387 107.528 251.554C106.961 251.759 105.967 251.792 105.319 251.63C103.963 251.295 102.937 250.389 102.532 249.176C102.402 248.788 102.386 248.658 102.386 248.011C102.386 247.364 102.402 247.235 102.532 246.852C103.072 245.245 104.346 244.269 106.005 244.193C107.133 244.145 108.062 244.479 108.878 245.223L109.105 245.439V244.134V242.829L108.748 242.667C107.879 242.273 106.593 242.074 105.54 242.166Z" fill="white"/>
<path d="M207.052 245.951L203.817 249.769L203.801 246.086L203.79 242.403H202.629H201.467V248.065V253.728H202.294H203.115L206.328 249.936L209.542 246.145L209.558 249.829L209.569 253.512H210.758H211.946V247.823V242.133H211.119H210.288L207.052 245.951Z" fill="white"/>
<path d="M75.7786 242.333C75.3195 243.319 70.7554 253.431 70.7554 253.469C70.7554 253.49 71.3171 253.506 72.0301 253.501L73.2994 253.485L73.8179 252.336L74.3364 251.193L76.6914 251.204L79.0464 251.22L79.5595 252.363L80.0726 253.506L81.3528 253.512H82.6383L82.514 253.226C82.4438 253.075 81.3203 250.524 80.0186 247.564L77.6475 242.187H76.7508H75.8488L75.7786 242.333ZM77.5286 247.44C77.9607 248.47 78.3172 249.327 78.3172 249.338C78.3172 249.349 77.5934 249.359 76.7022 249.359H75.0926L75.9082 247.45C76.3565 246.399 76.7238 245.541 76.7346 245.547C76.74 245.552 77.0965 246.404 77.5286 247.44Z" fill="white"/>
<path d="M0.808594 247.957V253.512H1.99688H3.18517V248.901V244.29H5.18366H7.18215V243.346V242.403H3.99537H0.808594V247.957Z" fill="white"/>
<path d="M41.9126 242.446C41.9126 242.473 42.8902 244.263 44.0839 246.425C45.2776 248.588 46.2499 250.378 46.2499 250.411C46.2499 250.438 45.8934 251.128 45.4613 251.942C45.0238 252.751 44.6673 253.436 44.6673 253.463C44.6673 253.495 45.2128 253.506 45.9474 253.501L47.2275 253.484L49.9444 247.995C51.4405 244.975 52.6612 242.478 52.6612 242.451C52.6612 242.419 52.1535 242.408 51.3811 242.413L50.101 242.429L48.9289 245.018C48.2808 246.442 47.719 247.676 47.6758 247.763C47.6056 247.919 47.5894 247.887 46.1256 245.158L44.6403 242.402H43.2791C42.5283 242.402 41.9126 242.424 41.9126 242.446Z" fill="white"/>
<path d="M57.7761 245.379C57.7491 248.61 57.7221 248.992 57.4412 249.828C57.1063 250.821 56.4582 251.478 55.6966 251.603L55.4697 251.64V253.814V255.992H56.55H57.6303V254.752V253.512H61.2491H64.868V254.752V255.992H65.9483H67.0285V253.808V251.624H66.4074H65.7862V247.013V242.403H61.7947H57.8031L57.7761 245.379ZM63.4097 247.957V251.624H61.1087H58.8077L59.0238 251.365C59.3479 250.977 59.5531 250.616 59.7098 250.157C59.969 249.37 60.0176 248.868 60.0446 246.485L60.0716 244.29H61.7407H63.4097V247.957Z" fill="white"/>
<path d="M87.4995 247.952V253.512H88.6608H89.8221V251.468V249.424L91.0806 249.402C92.1446 249.381 92.3985 249.359 92.7604 249.257C94.0729 248.906 94.9101 248.087 95.191 246.879C95.3152 246.372 95.3044 245.482 95.1694 244.97C95.0127 244.344 94.7751 243.945 94.2782 243.454C93.792 242.969 93.4032 242.748 92.701 242.554C92.3067 242.446 92.1338 242.435 89.8923 242.414L87.4995 242.392V247.952ZM91.1994 244.344C92.2419 244.463 92.8522 245.018 92.863 245.854C92.8684 246.544 92.4795 247.121 91.8422 247.364C91.5775 247.466 91.3831 247.488 90.6755 247.515L89.8221 247.542V245.913V244.29H90.2704C90.5134 244.29 90.9348 244.317 91.1994 244.344Z" fill="white"/>
<path d="M113.48 243.346V244.29H114.803H116.127V248.901V253.512H117.315H118.503V248.901V244.29H119.827H121.15V243.346V242.403H117.315H113.48V243.346Z" fill="white"/>
<path d="M126.119 247.957V253.517L128.674 253.501C131.569 253.479 131.634 253.469 132.509 253.016C133.562 252.466 134.113 251.56 134.113 250.357C134.113 249.219 133.632 248.367 132.72 247.887C132.52 247.779 132.244 247.666 132.104 247.634L131.85 247.569L132.115 247.369C132.838 246.83 133.173 245.967 133.033 245.007C132.887 243.956 132.336 243.206 131.407 242.786C130.694 242.467 130.5 242.446 128.215 242.419L126.119 242.392V247.957ZM129.349 244.236C130.338 244.349 130.834 244.802 130.834 245.59C130.834 246.512 130.197 246.987 128.976 246.987H128.442V245.584V244.182H128.674C128.798 244.182 129.101 244.204 129.349 244.236ZM130.348 248.793C130.791 248.885 131.213 249.106 131.412 249.349C131.845 249.877 131.747 250.805 131.207 251.247C130.807 251.576 130.089 251.732 128.971 251.732H128.442V250.222V248.712H129.214C129.673 248.712 130.127 248.745 130.348 248.793Z" fill="white"/>
<path d="M139.73 247.957V253.512H143.052H146.374V252.568V251.624H144.241H142.107V250.141V248.658H144.133H146.158V247.688V246.717H144.133H142.107V245.504V244.29H144.241H146.374V243.346V242.403H143.052H139.73V247.957Z" fill="white"/>
<path d="M152.099 247.957V253.512H153.26H154.422V251.058V248.604H156.879H159.337V251.058V253.512H160.525H161.713V247.957V242.403H160.525H159.337V244.533V246.663H156.879H154.422V244.533V242.403H153.26H152.099V247.957Z" fill="white"/>
<path d="M167.925 247.957V253.512H169.087H170.248V251.058V248.604H172.732H175.217V251.058V253.512H176.378H177.54V247.957V242.403H176.378H175.217V244.533V246.663H172.732H170.248V244.533V242.403H169.087H167.925V247.957Z" fill="white"/>
<path d="M183.751 247.963V253.517L186.387 253.501C188.888 253.479 189.039 253.474 189.439 253.361C190.152 253.161 190.54 252.945 190.989 252.492C191.437 252.045 191.675 251.63 191.831 251.026C191.956 250.567 191.956 249.715 191.837 249.257C191.523 248.087 190.584 247.197 189.309 246.873C188.925 246.776 188.645 246.755 187.467 246.733L186.074 246.706V244.554V242.403H184.912H183.751V247.963ZM188.477 248.788C188.893 248.939 189.168 249.154 189.341 249.473C189.471 249.71 189.493 249.818 189.493 250.136C189.493 250.6 189.368 250.875 189.033 251.16C188.65 251.489 188.266 251.576 187.089 251.608L186.074 251.64V250.141V248.647L187.143 248.669C187.996 248.685 188.261 248.712 188.477 248.788Z" fill="white"/>
<path d="M192.933 247.957V253.512H194.094H195.256V247.957V242.403H194.094H192.933V247.957Z" fill="white"/>
<path d="M0.862305 273.599V287.162H106.377H211.892V273.599V260.037H106.377H0.862305V273.599ZM132.222 265.165C133.616 265.295 135.09 265.748 136.046 266.341L136.219 266.454V268.789V271.124L135.938 270.86C134.696 269.69 133.34 269.15 131.817 269.221C131.461 269.237 131.012 269.291 130.818 269.339C130.343 269.463 129.565 269.846 129.187 270.143C128.506 270.682 127.928 271.599 127.68 272.521C127.534 273.071 127.48 274.333 127.577 274.888C127.891 276.641 129.014 277.86 130.737 278.323C131.093 278.421 131.315 278.442 132.033 278.442C132.795 278.442 132.962 278.426 133.421 278.302C134.291 278.07 135.22 277.579 135.917 276.97C136.057 276.851 136.182 276.754 136.198 276.754C136.209 276.754 136.219 277.779 136.219 279.035V281.316L135.83 281.543C134.631 282.222 133.303 282.535 131.547 282.541C129.214 282.546 127.259 281.942 125.654 280.718C125.098 280.286 124.299 279.44 123.915 278.863C121.949 275.924 121.976 271.69 123.98 268.746C124.39 268.142 125.292 267.236 125.919 266.794C127.669 265.564 130.013 264.96 132.222 265.165ZM11.962 269.07C12.9072 270.984 13.6958 272.548 13.712 272.548C13.7282 272.548 14.3764 270.984 15.1488 269.07L16.5531 265.597L19.189 265.591C21.679 265.591 21.8248 265.597 21.7978 265.683C21.7816 265.737 20.0046 269.442 17.8549 273.923L13.9443 282.066L11.3463 282.082C9.91491 282.088 8.74823 282.082 8.74823 282.061C8.74823 282.044 9.27216 281.031 9.91491 279.812C10.9466 277.86 11.0816 277.579 11.033 277.455C10.9898 277.337 4.83767 266.201 4.57841 265.764L4.47039 265.591H7.35469H10.239L11.962 269.07ZM31.0557 268.584V271.577H34.0804H37.1051V268.584V265.591H39.5357H41.9663V273.842V282.093H39.5357H37.1051V278.776V275.46H34.0804H31.0557V278.776V282.093H28.5981H26.1405V273.842V265.591H28.5981H31.0557V268.584ZM52.715 270.553C52.715 273.281 52.7312 275.514 52.7582 275.514C52.7798 275.508 54.33 273.281 56.1988 270.553L59.6016 265.597L61.9944 265.591H64.3818V273.842V282.093H62.0322H59.6827V277.115C59.6773 272.408 59.6719 272.149 59.5854 272.257C59.5368 272.316 57.9866 274.554 56.1448 277.229L52.8014 282.093H50.4086H48.0158V273.842V265.591H50.3654H52.715V270.553ZM80.6398 265.737C82.514 266.152 83.6213 267.069 84.0534 268.584C84.2316 269.221 84.2316 270.207 84.048 270.763C83.7293 271.734 82.8759 272.607 81.8065 273.06C81.612 273.141 81.45 273.233 81.45 273.254C81.45 273.281 81.5526 273.324 81.6822 273.357C82.433 273.546 83.2972 273.988 83.8644 274.468C84.896 275.347 85.3821 276.862 85.1013 278.329C84.7556 280.108 83.4485 281.37 81.4392 281.85C80.5101 282.071 79.9484 282.093 75.0656 282.093H70.4313V273.837V265.586L75.2817 265.607C79.9484 265.624 80.1483 265.629 80.6398 265.737ZM100.895 267.56V269.528H98.059H95.2233V270.714V271.901H97.789H100.355V273.68V275.46H97.789H95.2233V276.808V278.156H98.059H100.895V280.125V282.093H95.6284H90.3621V273.842V265.591H95.6284H100.895V267.56ZM114.809 265.651C116.472 265.818 117.974 266.503 118.849 267.495C120.75 269.657 120.599 273.114 118.519 275.034C117.714 275.778 116.667 276.263 115.37 276.49C114.863 276.582 114.425 276.609 113.01 276.63L111.265 276.662V279.375V282.093H108.808H106.35V273.842V265.591H110.282C112.74 265.591 114.441 265.613 114.809 265.651ZM146.212 270.553C146.212 273.281 146.228 275.514 146.255 275.514C146.277 275.514 147.827 273.287 149.701 270.563L153.115 265.618L155.524 265.602L157.933 265.591V273.842V282.093H155.556H153.179L153.169 277.121L153.152 272.149L149.728 277.121L146.309 282.093H143.911H141.513V273.842V265.591H143.862H146.212V270.553ZM175.217 267.56V269.528H173.272H171.328V275.81V282.093H168.87H166.413V275.81V269.528H164.468H162.524V267.56V265.591H168.87H175.217V267.56ZM190.341 267.56V269.528H187.532H184.723V270.714V271.901H187.262H189.8V273.68V275.46H187.262H184.723V276.808V278.156H187.532H190.341V280.125V282.093H185.074H179.808V273.842V265.591H185.074H190.341V267.56ZM207.085 267.56V269.528H205.14H203.196V275.81V282.093H200.765H198.334V275.81V269.528H196.39H194.446V267.56V265.591H200.765H207.085V267.56Z" fill="white"/>
<path d="M75.3467 270.472V272.127L76.7942 272.106C78.0905 272.084 78.2742 272.068 78.5929 271.966C79.295 271.734 79.6677 271.292 79.7109 270.634C79.765 269.803 79.3112 269.21 78.4146 268.951C78.204 268.892 77.7611 268.859 76.7402 268.843L75.3467 268.816V270.472Z" fill="white"/>
<path d="M75.3467 277.105V278.874L76.9293 278.841C78.6145 278.809 78.944 278.766 79.4463 278.512C79.7866 278.34 80.1214 277.957 80.2133 277.633C80.2565 277.488 80.2889 277.202 80.2835 276.997C80.2781 276.188 79.819 275.686 78.8845 275.465C78.7225 275.422 77.9609 275.384 76.9833 275.368L75.3467 275.341V277.105Z" fill="white"/>
<path d="M111.265 271.113V273.033H112.254C113.388 273.033 113.804 272.963 114.301 272.699C114.862 272.402 115.154 271.847 115.154 271.086C115.154 270.412 114.911 269.9 114.452 269.593C113.982 269.274 113.782 269.237 112.47 269.215L111.265 269.194V271.113Z" fill="white"/>
</g>
<defs>
<clipPath id="clip0_68_91">
<rect width="211.246" height="287.162" fill="white" transform="translate(0.754395)"/>
</clipPath>
</defs>
</svg>
